<?xml version="1.0" encoding="utf-8"?>
<!-- Generator: Adobe Illustrator 17.0.0, SVG Export Plug-In . SVG Version: 6.00 Build 0)  -->
<!DOCTYPE svg PUBLIC "-//W3C//DTD SVG 1.1//EN" "http://www.w3.org/Graphics/SVG/1.1/DTD/svg11.dtd">
<svg version="1.1" id="Layer_1" xmlns="http://www.w3.org/2000/svg" xmlns:xlink="http://www.w3.org/1999/xlink" x="0px" y="0px"
	 width="288px" height="288px" viewBox="0 0 288 288" enable-background="new 0 0 288 288" xml:space="preserve">
<path fill="#007F40" d="M285.977,144c0,78.407-63.564,141.971-141.968,141.971C65.595,285.971,2.023,222.407,2.023,144
	c0-78.411,63.572-141.971,141.987-141.971C222.413,2.029,285.977,65.589,285.977,144"/>
<path fill="#FFFFFF" d="M280.082,144c0,75.153-60.919,136.065-136.073,136.065C68.857,280.065,7.933,219.153,7.933,144
	c0-75.145,60.923-136.061,136.076-136.061C219.163,7.939,280.082,68.855,280.082,144"/>
<path fill="#007F40" d="M65.58,71.709c3.098,0,5.632-2.523,5.632-5.644c0-3.121-2.535-5.644-5.632-5.644
	c-3.121,0-5.655,2.523-5.655,5.644C59.924,69.186,62.459,71.709,65.58,71.709 M65.58,63.276c1.515,0,2.763,1.245,2.763,2.79
	c0,1.522-1.248,2.767-2.763,2.767c-1.549,0-2.79-1.244-2.79-2.767C62.79,64.52,64.031,63.276,65.58,63.276"/>
<polyline fill="#007F40" points="66.2,74.191 66.634,77.468 80.118,74.503 79.608,71.439 66.2,74.191 "/>
<path fill="#007F40" d="M234.953,74.042c0.544-3.067-1.488-5.987-4.563-6.55c-3.064-0.548-6.002,1.507-6.535,4.567
	c-0.544,3.075,1.496,6.009,4.559,6.55C231.474,79.149,234.409,77.098,234.953,74.042 M226.839,72.596
	c0.247-1.412,1.61-2.367,3.029-2.108c1.408,0.259,2.341,1.61,2.082,3.026c-0.236,1.412-1.591,2.348-3.01,2.086
	C227.531,75.351,226.584,74,226.839,72.596"/>
<polyline fill="#007F40" points="221.294,72.246 217.998,72.086 218.546,85.901 221.648,85.908 221.294,72.246 "/>
<path fill="#007F40" d="M55.129,74.396l-2.219-1.899c0,0-9.914,11.402-16.673,27.211l2.641,1.165c0,0,4.571-9.663,6.797-13.012
	l2.169,1.385l-2.067,13.522l3.577,1.469l11.197-6.732l1.781-2.93l-14.827-9.416c0.59-0.936,2.39-3.733,3.6-5.389l14.245,10.238
	l1.949-2.428L53.078,77.133L55.129,74.396 M51.068,91.301l6.173,3.958l-7.657,4.613L51.068,91.301z"/>
<path fill="#007F40" d="M227.939,63.823c-9.514-10.196-21.141-18.785-34.085-25.065l-1.549,2.546
	c4.377,2.112,8.597,4.483,12.639,7.113l-1.431,2.082l-12.734-2.219l-1.298,3.886l5.671,11.01l2.786,1.853l9.709-14.793
	c1.743,1.187,3.433,2.443,5.1,3.726c-0.898,0.076-2.953,0.358-3.996,1.621c-1.359,1.652-1.283,2.82-1.378,4.251
	c-0.088,1.427-0.704,3.437-1.382,4.331c-0.533,0.735-2.39,1.682-4.129,1.328l-0.746,2.778l2.009,0.666
	c1.511,0.095,3.638-0.32,5.541-2.752c1.286-1.659,1.317-5.252,2.025-7.117c0.754-1.903,3.026-2.698,4.925-2.801
	c1.705,1.442,3.387,2.911,5.028,4.426l-12.049,12.921l2.588,2.481l11.798-13.134c0.959,0.944,1.895,1.911,2.816,2.889
	L227.939,63.823 M197.317,59.949l-3.616-7.703l7.65,1.598L197.317,59.949z"/>
<path fill="#007F40" d="M166.532,33.122c0,0-0.091-3.334-5.625-4.476c-4.335-0.879-5.526,2.485-5.526,2.485
	s-0.567-3.593-5.591-3.711c-1.884-0.122-3.76-0.183-5.663-0.198c-28.323-0.24-54.389,9.632-74.556,26.035l1.766,2.371
	c5.233-4.278,10.896-8.103,16.894-11.395l2.356,4.38c-5.899-1.389-6.908,3.033-6.554,5.111l0.099,0.506
	c-1.328-0.324-3.326,0.186-3.326,0.186c-3.596,0.963-4.651,5.423-2.493,8.415c2.698,3.737,8.122,2.386,8.122,2.386v-3.212
	c0,0-3.89,0.438-5.123-1.089c-0.936-1.161-0.323-2.949,1.104-3.334c0,0,1.678-0.727,4.072,0.94l1.762-1.545
	c0,0-2.39-3.433-0.206-5.13c1.511-1.187,3.22-0.438,4.772,0.883l3.772,6.987l2.653-1.442L91.197,42.64
	c2.146-1.081,4.304-2.101,6.531-3.067l7.223,16.003l3.071-1.233l-7.162-16.076c3.349-1.336,6.786-2.523,10.291-3.555
	c-0.959,1.496-2.15,4.308-1.009,8.038c1.138,3.745,3.619,7.315,9.107,7.882l0.754-3.052c0,0-6.196-1.317-6.904-6.276
	c-0.453-3.296,1.267-6.184,2.459-7.775c3.387-0.834,6.816-1.515,10.306-2.059l0.095,12.159l3.874,1.827c0,0,3.418-5.758,7.235-6.786
	l-0.187,9.286l2.051,0.011l0.807-0.03l0.628-11.455l-2.512-2.451c0,0-6.261,3.319-8.605,6.348l0.167-9.393
	c4.814-0.586,9.72-0.852,14.683-0.818c2.025,0.03,4.03,0.107,6.025,0.217c0.559,0.057,3.33,0.552,3.014,4.426
	c-0.293,3.482-5.085,3.208-5.518,3.007l-0.129,3.361c0,0,4.205,1.203,6.127-1.941c0,0,1.762,4.019,5.998,2.999l0.232-3.048
	c0,0-4.118,0.171-3.459-3.726c0.597-3.383,2.9-3.985,4.586-3.657c1.686,0.339,5.248,2.695,4.24,8.586l-2.086,9.488l3.128,0.94
	l0.038-0.11l3.832-17.24l2.961,0.776l0.662-2.847c0,0-4.746-1.526-6.432-1.64L166.532,33.122"/>
<path fill="#007F40" d="M238.705,76.702l-2.527,1.549c2.752,3.985,4.822,7.357,6.698,10.789l-2.447,1.184l-9.861-8.849l-2.759,2.611
	l-0.929,12.685l1.621,2.949l10.439-5.054c1.085,1.507,2.451,6.261,0.605,7.281c-1.96,1.092-4.833-0.442-4.833-0.442l0.198,3.433
	c0,0,3.81,1.328,6.059,0.057c4.308-2.447,1.713-9.827,0.944-11.752l2.485-1.218c1.739,3.425,3.303,6.93,4.708,10.546l2.675-1.408
	C248.547,92.793,244.399,85.006,238.705,76.702 M230.359,95.023l0.639-7.73l5.956,4.575L230.359,95.023z"/>
<path fill="#007F40" d="M112.863,210.08c4.224,0.266,6.154-1.949,7.585-3.574c1.146-1.317,1.815-2.009,3.048-1.96
	c1.108,0.038,1.937,0.795,3.193,2.036c1.69,1.659,3.772,3.692,7.741,3.825c3.463,0.107,5.591-2.051,7.319-3.76
	c1.085-1.123,2.059-2.101,2.991-2.101c1.876,0,2.771,0.841,4.027,2.021c1.503,1.385,3.353,3.144,7.25,3.045
	c3.722-0.091,5.621-1.99,7.182-3.501c1.199-1.199,1.937-1.88,3.087-1.88c0.967,0,1.834,0.959,2.866,2.074
	c2.025,2.215,4.807,5.248,10.527,2.215l0.129-0.099l2.226-1.56c0.567-0.438,0.696-1.214,0.308-1.789
	c-0.415-0.567-1.206-0.685-1.781-0.301l-2.135,1.545c-3.931,2.055-5.48,0.392-7.421-1.732c-1.225-1.344-2.641-2.873-4.719-2.873
	c-2.242,0-3.585,1.317-4.883,2.592c-1.404,1.397-2.729,2.714-5.439,2.786c-2.854,0.053-4.072-1.062-5.469-2.371
	c-1.347-1.267-2.885-2.706-5.754-2.706c-1.994,0-3.406,1.442-4.792,2.828c-1.583,1.583-3.067,3.109-5.45,3.022
	c-2.953-0.069-4.525-1.598-6.028-3.09c-1.34-1.317-2.736-2.668-4.887-2.759c-2.5-0.084-3.851,1.458-5.05,2.82
	c-1.374,1.56-2.542,2.9-5.515,2.729c-1.48-0.091-3.947-2.131-5.161-3.425c-0.51-0.487-1.29-0.51-1.804-0.027
	c-0.487,0.476-0.506,1.279-0.038,1.804C106.412,206.316,109.921,209.901,112.863,210.08"/>
<path fill="#007F40" d="M189.363,216.261c-0.609-0.346-1.389-0.133-1.728,0.464c-0.655,1.146-2.801,4.068-5.005,3.981
	c-2.07-0.11-3.566-1.195-5.031-2.242c-1.332-0.951-2.736-1.945-4.464-2.044c-3.467-0.179-6.249,3.311-6.721,3.92l-0.403,0.434
	c-3.429,1.918-4.757,0.388-6.542-1.732c-1.161-1.393-2.47-2.93-4.464-2.93c-2.097,0-3.44,1.317-4.746,2.58
	c-1.423,1.408-2.767,2.717-5.229,2.778c-2.508,0.084-3.433-0.967-4.597-2.268c-1.115-1.248-2.485-2.782-5.225-2.782
	c-1.911,0-3.239,1.45-4.537,2.862c-1.42,1.568-2.767,3.048-4.883,2.991c-2.672-0.091-4.019-1.534-5.435-3.064
	c-1.26-1.34-2.542-2.698-4.609-2.79c-2.394-0.103-3.65,1.469-4.746,2.854c-1.248,1.534-2.314,2.862-4.955,2.687
	c-1.256-0.084-3.49-2.032-4.662-3.38c-0.464-0.514-1.271-0.563-1.804-0.118c-0.506,0.457-0.559,1.267-0.091,1.796
	c0.582,0.681,3.673,4.049,6.386,4.221c3.962,0.282,5.77-1.968,7.09-3.623c1.02-1.283,1.629-1.964,2.683-1.914
	c0.978,0.038,1.72,0.788,2.847,2.006c1.557,1.667,3.513,3.737,7.212,3.855c3.265,0.103,5.248-2.067,6.847-3.806
	c0.955-1.047,1.861-2.055,2.656-2.055c1.621,0,2.341,0.826,3.345,1.937c1.267,1.442,2.862,3.243,6.55,3.132
	c3.456-0.095,5.385-1.99,6.926-3.509c1.184-1.149,1.952-1.872,2.976-1.872c0.822,0,1.602,0.944,2.535,2.032
	c1.781,2.131,4.479,5.328,9.872,2.238l0.297-0.236l0.582-0.636l0.099-0.114c0.636-0.852,2.717-3.071,4.609-2.972
	c0.99,0.057,1.983,0.765,3.113,1.576c1.602,1.142,3.585,2.561,6.394,2.698c4.217,0.183,7.204-4.993,7.315-5.229
	C190.174,217.399,189.965,216.615,189.363,216.261"/>
<path fill="#007F40" d="M173.79,260.073c-0.27-0.35-6.694-8.118-17.819-6.211c-5.465,0.944-7.798,5.081-7.798,9.039l0.038,0.856
	c0.167,1.888,0.807,3.307,1.697,3.901c-2.306,2.637-3.798,5.48-4.738,7.855v-10.725c0.042-0.19,0.365-0.719,0.632-1.225
	c1.439-2.459,4.259-7.303,4.259-14.862c0-0.906-0.034-1.853-0.148-2.832c-0.548-6.276-2.915-9.815-4.498-12.148
	c-0.613-0.948-1.149-1.747-1.165-2.226c-0.034-0.411-0.362-0.738-0.765-0.746c-0.392-0.03-0.754,0.259-0.811,0.651
	c-0.004,0.034-0.377,2.196-1.602,3.988c-1.237,1.739-4.095,6.447-4.095,12.049c0,5.789,1.732,13.446,6.607,17.853v7.893
	c-1.047-1.884-2.622-4.186-4.978-6.379c0.091-0.483,0.183-1.275,0.183-2.31c0-2.923-0.826-7.406-5.37-9.678
	c-10.656-5.34-19.086,4.795-19.177,4.894l-0.087,0.856l0.754,0.434c10.858-0.693,17.796,2.557,22.123,6.359l0.548,0.556l0.061,0.015
	c3.836,3.608,5.454,7.528,5.945,8.955v4.228c0,0.419,0.331,0.757,0.742,0.776c0.415,0.034,0.776-0.263,0.845-0.674
	c0.118-0.921,3.235-22.424,27.931-19.866l0.773-0.411L173.79,260.073 M131.466,255.673l0.784,6.774
	c-0.967-0.483-1.998-0.906-3.098-1.317l-0.845-6.226C129.338,255.007,130.377,255.251,131.466,255.673 M116.771,259.354
	c1.892-1.781,5.728-4.658,10.58-4.506l0.788,5.964C124.935,259.833,121.179,259.262,116.771,259.354 M137.189,265.568
	c-1.161-0.929-2.459-1.792-3.912-2.603l-0.818-6.85l0.255,0.114c3.81,1.903,4.525,5.64,4.525,8.167
	C137.239,264.826,137.22,265.215,137.189,265.568 M144.782,262.2l-0.114-4.434l3.258-3.665
	C147.176,257.786,145.775,260.461,144.782,262.2 M138.887,244.226l4.571,3.185l0.099,3.791c-1.511-1.184-4.879-3.825-4.879-3.825
	l-0.126-0.068C138.552,246.258,138.697,245.223,138.887,244.226 M140.219,240.123l3.124,3.136l0.084,2.98
	c-1.359-0.948-4.301-2.995-4.301-2.995v-0.015C139.42,242.11,139.812,241.063,140.219,240.123 M147.945,243.209
	c-0.487,0.422-2.656,2.356-3.574,3.151l-0.069-2.911l2.793-3.227C147.419,241.12,147.716,242.11,147.945,243.209 M148.222,252.347
	l-3.57,4.008l-0.114-3.646v-0.011l3.916-3.254C148.428,250.459,148.34,251.426,148.222,252.347 M148.34,246.007
	c0.076,0.761,0.114,1.492,0.122,2.2c-0.719,0.613-3.087,2.55-3.95,3.296l-0.11-3.882l3.733-3.322
	C148.211,244.857,148.283,245.409,148.34,246.007 M138.563,248.488l5.02,3.939l0.091,4.186l-4.826-5.104
	C138.697,250.475,138.605,249.47,138.563,248.488 M146.704,239.229c-0.133,0.167-1.648,1.907-2.439,2.812l-0.198-7.509l0.049,0.065
	C144.904,235.754,145.886,237.242,146.704,239.229 M142.358,236.283c0.312-0.445,0.556-0.894,0.773-1.343l0.187,6.938
	c-0.841-0.841-2.192-2.181-2.683-2.656C141.334,237.813,142,236.793,142.358,236.283 M139.127,253.188l4.605,4.837l0.126,5.267
	C141.357,260.598,139.861,256.868,139.127,253.188 M156.237,255.418c0.773-0.137,1.511-0.19,2.23-0.24l-1.48,7.033
	c-1.081,0.537-2.078,1.127-2.995,1.777l1.553-8.434L156.237,255.418 M151.031,266.451l-0.145-0.053
	c-0.202,0-0.925-0.868-1.092-2.771l-0.034-0.727c0-2.698,1.271-5.743,4.776-7.033l-1.659,8.951
	C152.211,265.333,151.606,265.884,151.031,266.451 M158.072,261.736l1.385-6.573c5.644,0.034,9.701,2.763,11.691,4.502
	C165.862,259.38,161.558,260.233,158.072,261.736"/>
<path fill="#007F40" d="M225.012,201.951c0.282-0.906,0.464-1.526-0.08-1.914c-0.126-0.091-0.579-0.327-1.119,0.088
	c-0.266,0.198-0.784,0.301-1.884,0.533l-2.664,0.578l-0.118-0.677c2.908-2.31,4.434-6.565,5.423-10.032
	c1.492-5.206-0.94-9.317-1.024-9.469c-0.122-0.194-0.255-0.792-0.35-1.176c-0.247-1.054-0.441-1.895-1.203-2.002l-0.567,0.107
	c0.453-3.654,0.034-8.727-1.077-10.032c-0.491-0.556-0.925-1.469-1.298-2.204c-0.579-1.176-0.929-1.892-1.675-1.861
	c-0.175,0-0.651,0.091-0.902,0.715c-0.061,0.167-0.403,0.403-0.776,0.632l-0.331-0.792c0.868-0.449,2.131-1.431,2.999-3.471
	l0.548-1.241c1.191-2.573,2.512-5.454,0.666-8.354c-0.228-0.358-0.228-0.605-0.156-1.317l0.049-0.734
	c0.03-0.419-0.164-0.78-0.514-0.974c-0.529-0.304-1.511-0.095-2.485,0.282c0.445-0.689,0.902-1.522,1.442-2.55
	c2.249-4.415,1.066-7.086,0.483-8.354l-0.175-0.422l-0.076-1.009c-0.027-0.792-0.03-1.499-0.639-1.774
	c0.864-4.16-0.282-8.019-1.355-8.921l-0.59-0.917c-0.32-0.685-0.693-1.359-1.412-1.271c-0.719,0.091-0.891,0.894-0.963,1.191
	c-0.118,0.502-0.502,0.913-0.989,1.45c-0.757,0.826-1.713,1.88-1.899,3.737c-0.225,2.329,1.073,5.629,1.637,6.972
	c-1.45,1.393-2.375,4.529-2.793,6.302c-1.073-0.75-1.964-0.803-2.767-0.628l-0.103,0.008l-0.518-0.164
	c-0.571-0.24-1.313-0.521-1.857-0.072c-0.232,0.198-0.502,0.594-0.343,1.332c0.187,0.963-0.076,3.783-0.198,4.795
	c-0.209,3.501,4.944,7.775,6.652,9.088c0.008,0.617,0.057,1.149,0.114,1.572c-0.799-0.529-1.503-0.879-1.998-0.997
	c-0.833-0.202-1.069-0.335-1.199-0.426l-0.894-0.232c-0.362,0-0.662,0.156-0.879,0.422c-0.438,0.582-0.213,1.454,0.03,2.352
	l0.072,0.32l-0.042,0.617c-0.122,0.811-0.339,2.15,0.266,4.837c0.704,3.258,4.034,6.927,5.362,8.304
	c-0.464-0.156-0.929-0.232-1.347-0.175c-0.556,0.042-1.244-0.103-1.857-0.24c-0.936-0.179-1.675-0.323-2.147,0.194
	c-0.122,0.167-0.342,0.525-0.156,1.073c0.076,0.236,0.065,0.563,0.034,1.043c-0.034,0.898-0.095,2.276,0.415,4.422
	c0.575,2.39,2.101,5.321,3.026,6.934h-0.19l-0.16,0.019l-1.02-0.103c-0.7-0.099-1.325-0.167-1.77-0.019
	c-0.94,0.323-0.731,1.389-0.552,2.329c0.072,0.43,0.164,0.894,0.164,1.275l-0.057,0.655c-0.167,1.439-0.487,4.137,1.61,7.357
	c2.055,3.14,5.008,4.719,6.732,5.423c-1.305,1.187-2.234,2.417-2.748,3.224l-0.639-0.887c-0.841-1.005-1.142-1.381-1.754-1.264
	c-0.541,0.114-0.685,0.601-0.754,0.864l-0.095,0.27l-0.483,0.426c-1.184,1.024-3.616,3.136-4.011,8.072
	c-0.019,0.422-0.057,0.841-0.057,1.283c0,2.919,0.655,6.158,0.986,7.646c-0.845,0.472-1.519,0.936-2.029,1.328
	c-0.179-1.8-0.757-3.699-1.751-5.64l-0.095-0.164c-0.499-1.035-0.548-1.576-0.548-1.576c-0.008-0.365-0.308-0.685-0.685-0.738
	c-0.369-0.049-0.738,0.198-0.856,0.567l-0.449,0.206c-0.955,0.441-2.55,1.134-4.533,4.331c-1.61,2.58-1.975,6.063-1.975,8.731
	c0,1.484,0.103,2.729,0.19,3.456c-2.52,0.453-4.365,1.496-5.636,2.584c1.161-5.575-1.313-8.285-1.621-8.59
	c-0.388-0.396-0.396-0.685-0.396-0.693c-0.027-0.346-0.274-0.674-0.609-0.757l-0.875,0.354c0,0-0.506,0.864-1.382,1.241
	c-1.701,0.757-4.967,3.315-6.443,8.08c-1.226,3.928-0.065,7.478,0.445,8.772c-1.964,1.012-5.808,0.864-8.974,0.754l-0.579-0.008
	c-4.205-0.156-7.109,1.142-7.235,1.203c-0.483,0.209-0.681,0.765-0.483,1.233c0.232,0.483,0.788,0.704,1.252,0.483
	c0.03-0.008,2.653-1.172,6.405-1.028l0.59,0.03c4,0.133,8.514,0.293,10.77-1.553c3.174,0.304,5.507-1.758,7.026-4.183
	c1.515,1.069,4.274,2.226,8.97,1.975c2.725-0.133,7.284-0.388,8.624-3.996c0.187-0.521,1.264-1.503,1.933-2.009l0.232-0.803
	l-0.696-0.624l0.133,0.027l-0.278-0.24c-0.525-0.537-1.34-1.347-3.254-1.876c0.358-0.563,0.822-1.389,1.404-2.592
	c2.759,1.138,5.971,1.439,9.545,0.879c3.81-0.609,6.584-2.436,8.034-5.355c0.575-1.142,1.465-2.181,1.465-2.207l0.175-0.666
	l-0.415-0.552c-0.053-0.034-1.382-0.681-3.09-1.305c-1.37-0.483-2.668-0.765-3.905-0.887c0.506-0.936,1.016-2.481,1.104-4.982
	c0.027-0.891-0.03-1.77-0.137-2.637c0.963-0.008,2.569-0.297,4.803-1.595c6.508-3.772,6.436-6.984,6.413-8.708v-0.597
	C224.658,203.154,224.86,202.491,225.012,201.951 M216.042,192.444c0.175-1.872,0.993-7.136,2.66-9.046l1.815-1.964l0.183-0.194
	l-3.498,13.617c-0.19-0.4-0.369-0.841-0.605-1.264c-0.183-0.362-0.381-0.734-0.579-1.073L216.042,192.444 M223.475,187.066
	c0,0.929-0.107,1.945-0.438,3.033c-0.78,2.759-2.074,6.561-4.346,8.746c-0.156-0.605-0.388-1.294-0.693-2.044l3.973-15.41
	l0.206,0.464C222.257,181.974,223.475,184.048,223.475,187.066 M219.147,168.989c0.537,0.624,0.86,3.231,0.86,5.884
	c0,2.204-0.225,4.426-0.757,5.496l-0.061,0.179l-1.667,1.808l-0.179,0.202c-0.114-0.354-0.244-0.677-0.388-1.016l0.046-0.164
	l0.769-14.683C218.139,167.467,218.588,168.353,219.147,168.989 M216.495,166.61l-0.632,12.597c-0.94-1.667-1.945-2.904-2.908-3.756
	c0.042-1.427,0.358-5.393,1.153-6.812c0.491-0.868,1.351-1.393,2.108-1.861L216.495,166.61 M217.473,159.079l-0.552,1.275
	c-0.754,1.739-1.785,2.466-2.371,2.744c-0.323-0.438-0.681-0.868-1.058-1.275c0.449-1.397,2.402-7.246,4.472-10.142l0.266,0.567
	c0.502,0.746,0.685,1.492,0.685,2.28C218.915,155.954,218.23,157.431,217.473,159.079 M216.51,145.359
	c-1.294,2.485-2.165,3.711-2.698,4.297c-0.38-0.803-0.769-1.503-1.146-2.154c0.331-1.149,2.07-7.006,3.985-10.074l0.049,0.312
	l0.255,0.651c0.274,0.609,0.696,1.519,0.696,2.839C217.652,142.322,217.362,143.669,216.51,145.359 M216.251,131.551
	c0,1.123-0.156,2.371-0.544,3.673l-0.521,0.148l-0.198,0.034l0.084-8.635l0.072,0.057
	C215.49,127.137,216.251,128.998,216.251,131.551 M211.886,129.926c0.122-1.324,0.78-2.04,1.488-2.801l0.449-0.514l-0.107,9.145
	l-0.415,0.175c-0.502-1.248-1.439-3.733-1.439-5.564L211.886,129.926 M213.302,137.701c0.925-0.518,1.587-0.677,2.184-0.776
	c-1.617,2.668-3.041,6.965-3.688,9.123c-0.461-0.689-0.902-1.264-1.302-1.72C210.954,142.021,212.057,138.39,213.302,137.701
	 M206.276,144.034l0.43-0.057c1.576-0.339,3.574,1.975,5.937,6.869c-0.601,0.559-1.073,1.153-1.454,1.789
	c-1.381-1.827-4.202-5.739-5.442-8.685L206.276,144.034 M204.91,148.609l0.023-0.122c0.019-0.209,0.171-1.484,0.251-2.774
	c1.614,3.197,4.369,6.873,5.404,8.198c-0.202,0.559-0.335,1.089-0.434,1.625C208.019,153.739,204.91,150.717,204.91,148.609
	 M211.863,159.619c-0.023-0.076-0.24-0.887-0.263-1.971l0.167-0.495l-0.164-0.422c0.118-1.751,0.761-3.893,2.885-5.305
	c0.917-0.632,2.523-1.362,3.368-1.595l-0.008,0.042l-0.023,0.008c-2.31,2.322-4.544,8.555-5.34,10.938l-0.708-0.617l0.107-0.381
	L211.863,159.619 M214.299,166.15c-0.582,0.441-1.146,0.978-1.564,1.735l-0.091,0.156l-5.081-8.548l0.183,0.049
	C209.119,159.878,213.812,163.341,214.299,166.15 M206.657,162.713c0-0.62,0.068-1.05,0.126-1.401l0.057-0.571l5.263,8.871
	c-0.255,0.974-0.423,2.07-0.521,3.056c-1.397-1.515-4-4.555-4.559-7.113C206.744,164.296,206.657,163.402,206.657,162.713
	 M209.641,175.588c1.225-0.118,4.441,1.853,6.611,8.635l0.072,0.114c-0.441,1.009-0.78,2.15-1.05,3.25
	c-1.241-2.9-3.741-8.064-6.961-12.045C208.75,175.588,209.21,175.641,209.641,175.588 M206.931,177.019l0.027-0.868l0.011-0.247
	c4.099,4.875,7.113,12.08,7.844,13.884l-0.11,0.773c-1.416-1.766-2.809-2.546-3.924-2.866c-0.476-0.799-2.771-4.685-3.448-7.532
	C206.999,178.777,206.931,177.795,206.931,177.019 M208.681,189.042c0.959-0.042,3.791-0.183,6.504,5.26
	c1.85,3.718,2.401,6.371,2.55,7.418l-0.963,0.426c-1.267-2.086-6.184-9.99-9.058-13.168l0.75,0.065H208.681z M208.168,198.111
	c-1.199-1.865-1.477-3.49-1.477-4.746c0-0.62,0.068-1.142,0.106-1.576l0.095-0.837c0-0.381-0.069-0.773-0.133-1.157
	c2.698,2.938,7.589,10.839,8.898,12.966l-0.662,0.449C213.96,202.872,210.402,201.506,208.168,198.111 M219.558,202.792l2.223-0.483
	c-3.151,2.409-7.555,6.592-9.412,8.388c-0.194-0.54-0.43-1.054-0.666-1.522C211.893,208.836,214.736,203.922,219.558,202.792
	 M211.954,216.71l-0.015,0.472c-0.129,3.593-1.176,4.757-1.442,4.989c-0.78,0.034-1.526,0.118-2.219,0.266
	c-0.061-2.321-0.122-8.662,0.944-14.348C210.436,209.76,211.954,213.09,211.954,216.71 M204.621,216.367
	c0-0.392,0.015-0.776,0.049-1.146c0.308-3.962,2.067-5.754,3.201-6.744c-1.031,5.869-0.929,12.251-0.856,14.276
	c-0.556,0.156-1.062,0.346-1.53,0.54C205.153,221.749,204.621,218.887,204.621,216.367 M192.67,231.065
	c0-2.474,0.339-5.629,1.754-7.897c1.203-1.945,2.165-2.805,2.946-3.269c-2.082,5.058-2.782,12.297-2.946,14.405h-0.521
	c-0.354,0-0.7,0.008-1.043,0.049C192.785,233.657,192.67,232.473,192.67,231.065 M193.904,235.883c4.788,0,6.371,1.02,7.151,1.739
	c-7.353,2.348-13.541,2.588-16.045,2.561C186.006,238.696,188.583,235.883,193.904,235.883 M182.037,227.811v-0.068V227.811z
	 M175.826,237.231c1.324-4.262,4.24-6.516,5.591-7.132l0.236-0.107c-1.199,4.731-4.312,11.124-5.747,13.96
	c-0.259-0.898-0.544-2.15-0.544-3.608C175.362,239.373,175.499,238.304,175.826,237.231 M176.869,245.036v-0.038l-0.076-0.015
	c1.401-2.695,5.012-9.986,6.219-15.227c0.339,0.411,1.374,1.857,1.374,4.548c0,1.047-0.164,2.291-0.586,3.718
	c-0.027,0.122-0.312,1.062-0.868,2.249l-0.563,0.54l-0.027,0.225l0.042,0.232C181.265,243.168,179.464,245.154,176.869,245.036
	 M192.431,242.837c-3.037,0.171-5.614-0.35-7.398-1.366c2.439,0.019,8.049-0.19,14.919-2.185l-0.304,0.59
	C198.745,242.3,195.589,242.665,192.431,242.837 M195.692,234.353c0.183-2.15,0.898-9.454,2.965-14.253l0.076,0.141l0.091,0.19
	c0.491,0.963,1.682,3.326,1.682,6.188c0,1.366-0.263,2.828-0.993,4.327c-1.012,2.089-1.541,2.969-1.815,3.357l-0.499,0.171
	C196.75,234.433,196.24,234.391,195.692,234.353 M216.776,227.134c-1.226,2.462-3.524,3.962-6.858,4.479
	c-3.25,0.514-6.162,0.263-8.643-0.735l0.198-0.548c1.8-0.03,8.453-0.384,15.607-3.752L216.776,227.134 M217.153,225.143
	c-6.656,3.284-13.13,3.832-15.315,3.92c0.095-0.559,0.187-1.123,0.232-1.697l0.156-0.129c0.091-0.088,0.978-0.989,2.516-1.853
	l0.441,0.034l0.556-0.537c2.352-1.081,5.808-1.827,10.043-0.282C216.293,224.778,216.746,224.957,217.153,225.143 M223.014,204.729
	c0,1.534-0.392,3.878-5.621,6.896c-2.321,1.336-3.737,1.42-4.32,1.381l-0.259-0.974c1.564-1.538,7.045-6.782,10.325-9.18
	l-0.118,0.658l-0.008,0.826V204.729z"/>
<path fill="#007F40" d="M63.429,203.694v0.598c-0.042,1.724-0.122,4.936,6.398,8.708c2.249,1.298,3.859,1.587,4.814,1.595
	c-0.126,0.856-0.175,1.747-0.148,2.637c0.099,2.5,0.598,4.046,1.119,4.982c-1.241,0.122-2.542,0.403-3.92,0.887
	c-1.724,0.624-3.029,1.271-3.075,1.305l-0.434,0.552l0.164,0.666c0,0.027,0.902,1.066,1.48,2.207
	c1.461,2.919,4.228,4.746,8.019,5.355c3.585,0.559,6.79,0.259,9.556-0.879c0.594,1.203,1.043,2.028,1.412,2.592
	c-1.929,0.529-2.736,1.34-3.254,1.876l-0.289,0.24l0.145-0.027l-0.689,0.624l0.209,0.803c0.693,0.506,1.754,1.488,1.949,2.009
	c1.347,3.608,5.891,3.863,8.605,3.996c4.708,0.251,7.459-0.906,8.997-1.975c1.515,2.424,3.836,4.487,7.003,4.183
	c2.284,1.846,6.797,1.686,10.805,1.553l0.575-0.019c3.741-0.156,6.367,1.009,6.405,1.016c0.468,0.221,1.035,0,1.237-0.483
	c0.209-0.468,0-1.035-0.48-1.233c-0.11-0.061-3.014-1.359-7.235-1.203l-0.563,0.008c-3.178,0.11-7.006,0.259-8.97-0.754
	c0.51-1.294,1.663-4.845,0.441-8.772c-1.488-4.765-4.761-7.322-6.447-8.08c-0.872-0.377-1.374-1.229-1.374-1.229l-0.872-0.365
	c-0.358,0.084-0.598,0.411-0.62,0.757c0,0.008-0.011,0.297-0.4,0.693c-0.301,0.304-2.79,3.014-1.633,8.59
	c-1.271-1.088-3.109-2.131-5.636-2.584c0.107-0.727,0.206-1.971,0.206-3.456c0-2.668-0.373-6.15-1.979-8.731
	c-1.99-3.197-3.585-3.89-4.529-4.331l-0.453-0.221c-0.118-0.354-0.48-0.601-0.86-0.552c-0.369,0.053-0.666,0.373-0.689,0.75
	c0,0-0.034,0.529-0.552,1.564l-0.076,0.164c-0.993,1.941-1.587,3.84-1.774,5.64c-0.491-0.392-1.168-0.856-2.025-1.328
	c0.339-1.488,0.986-4.727,0.986-7.638c0-0.449-0.011-0.868-0.042-1.29c-0.396-4.936-2.843-7.056-4.03-8.072l-0.468-0.438
	l-0.084-0.259c-0.084-0.263-0.221-0.75-0.776-0.864c-0.594-0.118-0.898,0.259-1.747,1.264l-0.628,0.887
	c-0.533-0.807-1.45-2.036-2.767-3.223c1.72-0.704,4.693-2.283,6.729-5.423c2.116-3.216,1.792-5.918,1.617-7.357l-0.061-0.655
	c0-0.381,0.084-0.845,0.179-1.275c0.171-0.932,0.388-2.017-0.559-2.329c-0.449-0.148-1.062-0.08-1.77,0.019l-1.028,0.103
	l-0.152-0.019h-0.183c0.925-1.614,2.459-4.544,3.007-6.934c0.525-2.147,0.472-3.524,0.422-4.415
	c-0.004-0.487-0.034-0.814,0.049-1.039c0.186-0.559-0.03-0.917-0.175-1.085c-0.468-0.51-1.199-0.373-2.116-0.194
	c-0.62,0.137-1.325,0.282-1.869,0.24c-0.415-0.057-0.887,0.019-1.355,0.175c1.328-1.378,4.662-5.046,5.374-8.304
	c0.594-2.687,0.388-4.027,0.255-4.845l-0.053-0.609l0.091-0.32c0.232-0.898,0.461-1.77,0.027-2.352
	c-0.228-0.266-0.525-0.422-0.894-0.422l-0.89,0.232c-0.126,0.091-0.369,0.225-1.184,0.426c-0.506,0.118-1.203,0.468-2.013,0.997
	c0.057-0.422,0.11-0.955,0.126-1.572c1.713-1.313,6.862-5.587,6.656-9.088c-0.126-1.012-0.384-3.832-0.202-4.788
	c0.145-0.746-0.118-1.142-0.339-1.34c-0.563-0.449-1.286-0.156-1.872,0.072l-0.51,0.171l-0.095-0.015
	c-0.803-0.175-1.709-0.122-2.786,0.636c-0.419-1.781-1.324-4.917-2.782-6.31c0.563-1.343,1.853-4.643,1.636-6.991
	c-0.179-1.838-1.13-2.892-1.888-3.718c-0.499-0.537-0.875-0.948-0.993-1.45c-0.061-0.297-0.255-1.1-0.967-1.191
	c-0.734-0.088-1.088,0.586-1.431,1.271l-0.579,0.917c-1.073,0.902-2.23,4.761-1.343,8.921c-0.598,0.274-0.617,0.982-0.639,1.773
	l-0.08,1.009l-0.187,0.422c-0.575,1.283-1.762,3.939,0.506,8.354c0.525,1.028,0.99,1.861,1.42,2.55
	c-0.974-0.377-1.952-0.586-2.489-0.282c-0.354,0.194-0.529,0.556-0.502,0.974l0.057,0.735c0.072,0.712,0.084,0.959-0.141,1.317
	c-1.88,2.9-0.54,5.792,0.636,8.354l0.559,1.241c0.883,2.04,2.135,3.022,2.991,3.471l-0.316,0.792
	c-0.381-0.228-0.715-0.464-0.795-0.632c-0.236-0.624-0.719-0.715-0.894-0.715c-0.742-0.03-1.111,0.685-1.682,1.861
	c-0.343,0.734-0.818,1.648-1.298,2.204c-1.1,1.305-1.519,6.379-1.058,10.032l-0.59-0.107c-0.738,0.107-0.959,0.959-1.191,2.002
	c-0.099,0.4-0.225,0.982-0.346,1.176c-0.103,0.152-2.516,4.262-1.02,9.469c0.993,3.467,2.5,7.722,5.416,10.032l-0.103,0.674
	l-2.679-0.575c-1.1-0.232-1.614-0.335-1.892-0.533c-0.533-0.415-0.978-0.179-1.092-0.088c-0.571,0.388-0.388,1.009-0.095,1.914
	C63.159,202.491,63.372,203.153,63.429,203.694 M71.996,192.52c-0.198,0.339-0.381,0.712-0.582,1.073
	c-0.225,0.422-0.415,0.864-0.598,1.264l-3.513-13.617l0.202,0.194l1.8,1.964c1.682,1.911,2.493,7.174,2.679,9.046L71.996,192.52
	 M65.831,181.856l0.213-0.464l3.962,15.41c-0.282,0.75-0.502,1.439-0.7,2.044c-2.264-2.185-3.539-5.987-4.339-8.746
	c-0.312-1.088-0.434-2.105-0.434-3.033C64.533,184.048,65.766,181.974,65.831,181.856 M70.261,166.694l0.75,14.683l0.046,0.164
	c-0.133,0.339-0.27,0.662-0.384,1.016l-0.164-0.202l-1.667-1.808l-0.069-0.179c-0.537-1.069-0.769-3.292-0.769-5.496
	c0-2.645,0.316-5.26,0.868-5.884C69.431,168.353,69.888,167.467,70.261,166.694 M71.798,166.778
	c0.761,0.468,1.625,0.993,2.112,1.861c0.78,1.42,1.107,5.385,1.161,6.812c-0.982,0.852-1.987,2.089-2.915,3.756l-0.643-12.597
	L71.798,166.778 M69.1,154.515c0-0.776,0.179-1.522,0.674-2.268l0.293-0.567c2.047,2.896,4.011,8.746,4.472,10.142
	c-0.396,0.407-0.757,0.837-1.077,1.275c-0.582-0.278-1.621-1.005-2.356-2.744l-0.567-1.275
	C69.785,157.431,69.1,155.946,69.1,154.515 M70.379,141.229c0-1.321,0.396-2.215,0.677-2.839l0.259-0.651l0.042-0.312
	c1.926,3.067,3.661,8.925,3.981,10.074c-0.365,0.651-0.746,1.359-1.13,2.154c-0.521-0.586-1.412-1.812-2.695-4.297
	C70.641,143.669,70.379,142.322,70.379,141.229 M72.879,126.828l0.057-0.057l0.099,8.635l-0.202-0.034l-0.502-0.148
	c-0.415-1.302-0.567-2.55-0.567-3.673C71.764,128.998,72.525,127.137,72.879,126.828 M76.156,130.368
	c0,1.831-0.932,4.316-1.454,5.564l-0.388-0.175l-0.114-9.145l0.461,0.514c0.689,0.761,1.359,1.477,1.484,2.816L76.156,130.368
	 M77.53,144.327c-0.407,0.461-0.837,1.031-1.29,1.713c-0.658-2.15-2.078-6.447-3.715-9.115c0.601,0.099,1.267,0.259,2.192,0.776
	C75.95,138.39,77.069,142.021,77.53,144.327 M82.268,143.958c-1.237,2.938-4.053,6.85-5.431,8.67
	c-0.369-0.628-0.86-1.222-1.477-1.781c2.371-4.894,4.373-7.208,5.952-6.869l0.43,0.057L82.268,143.958 M77.846,155.535
	c-0.069-0.537-0.217-1.066-0.415-1.625c1.035-1.332,3.787-5.001,5.435-8.198c0.042,1.29,0.205,2.565,0.236,2.774v0.122
	C83.102,150.717,79.996,153.739,77.846,155.535 M76.137,159.821l0.11,0.388l-0.704,0.62c-0.811-2.394-3.041-8.628-5.351-10.949
	l-0.023-0.008v-0.042c0.83,0.232,2.443,0.963,3.372,1.595c2.12,1.412,2.763,3.555,2.858,5.305l-0.141,0.422l0.16,0.495
	c-0.027,1.085-0.236,1.895-0.263,1.971L76.137,159.821 M80.285,159.543l0.164-0.049l-5.088,8.559l-0.076-0.167
	c-0.411-0.757-0.97-1.294-1.557-1.735C74.207,163.341,78.9,159.878,80.285,159.543 M81.012,165.556
	c-0.575,2.557-3.174,5.598-4.567,7.113c-0.126-0.986-0.289-2.082-0.533-3.056l5.252-8.871l0.08,0.571
	c0.046,0.35,0.122,0.78,0.122,1.401C81.366,163.402,81.279,164.296,81.012,165.556 M79.714,175.542
	c-3.223,3.981-5.716,9.145-6.961,12.045c-0.274-1.1-0.62-2.242-1.054-3.25l0.065-0.114c2.158-6.782,5.4-8.753,6.626-8.635
	C78.82,175.641,79.273,175.588,79.714,175.542 M80.681,180.163c-0.666,2.847-2.965,6.732-3.444,7.532
	c-1.115,0.32-2.508,1.1-3.901,2.866l-0.126-0.773c0.712-1.804,3.741-9.008,7.84-13.884l0.015,0.247l0.015,0.868
	C81.081,177.803,81.02,178.777,80.681,180.163 M79.543,189.042l0.773-0.065c-2.885,3.178-7.802,11.082-9.065,13.168l-0.967-0.426
	c0.16-1.047,0.689-3.699,2.546-7.418c2.725-5.442,5.56-5.305,6.496-5.26H79.543z M73.024,203.211l-0.658-0.449
	c1.302-2.127,6.203-10.028,8.902-12.966c-0.068,0.392-0.126,0.776-0.126,1.157l0.076,0.837c0.049,0.434,0.11,0.955,0.11,1.576
	c0,1.256-0.278,2.881-1.488,4.746C77.621,201.506,74.067,202.872,73.024,203.211 M76.312,209.174
	c-0.232,0.468-0.449,0.982-0.662,1.522c-1.857-1.796-6.272-5.979-9.408-8.388l2.226,0.483
	C73.283,203.922,76.122,208.836,76.312,209.174 M78.793,208.09c1.077,5.686,1.031,12.026,0.955,14.348
	c-0.697-0.148-1.435-0.232-2.219-0.266c-0.282-0.232-1.313-1.397-1.45-4.989l-0.011-0.472
	C76.068,213.09,77.587,209.76,78.793,208.09 M82.542,223.294c-0.48-0.194-0.993-0.384-1.53-0.54
	c0.053-2.025,0.152-8.407-0.872-14.276c1.138,0.989,2.908,2.782,3.212,6.744c0.03,0.369,0.042,0.754,0.042,1.146
	C83.395,218.887,82.873,221.749,82.542,223.294 M95.154,234.353c-0.331-0.042-0.689-0.049-1.039-0.049H93.59
	c-0.156-2.108-0.864-9.347-2.946-14.405c0.769,0.464,1.747,1.324,2.957,3.269c1.404,2.268,1.736,5.423,1.736,7.897
	C95.337,232.489,95.223,233.657,95.154,234.353 M103.017,240.184c-2.516,0.027-8.708-0.213-16.06-2.561
	c0.792-0.719,2.375-1.739,7.159-1.739C99.436,235.883,102.016,238.696,103.017,240.184 M105.978,227.811v-0.069V227.811z
	 M112.661,240.344c0,1.458-0.278,2.71-0.544,3.608c-1.439-2.835-4.556-9.229-5.754-13.956l0.24,0.103
	c1.362,0.617,4.255,2.87,5.579,7.132C112.535,238.304,112.661,239.373,112.661,240.344 M105.639,241.261l0.038-0.225l-0.027-0.225
	l-0.556-0.54c-0.571-1.187-0.845-2.127-0.887-2.249c-0.411-1.427-0.579-2.672-0.579-3.718c0-2.691,1.024-4.137,1.382-4.548
	c1.187,5.222,4.818,12.532,6.207,15.212l-0.049,0.042l-0.019,0.027C108.555,245.154,106.751,243.168,105.639,241.261
	 M88.361,239.876l-0.297-0.579c6.873,1.983,12.475,2.207,14.919,2.162c-1.781,1.028-4.362,1.549-7.406,1.378
	C92.43,242.665,89.259,242.3,88.361,239.876 M90.835,234.483l-0.51-0.179c-0.285-0.377-0.807-1.267-1.834-3.357
	c-0.731-1.499-0.993-2.961-0.993-4.327c0-2.858,1.199-5.225,1.701-6.207l0.091-0.164l0.061-0.141
	c2.063,4.791,2.809,12.095,2.972,14.245C91.79,234.391,91.292,234.433,90.835,234.483 M70.953,226.578
	c7.147,3.368,13.8,3.722,15.581,3.752l0.209,0.548c-2.493,0.997-5.393,1.248-8.643,0.734c-3.326-0.518-5.648-2.017-6.862-4.479
	L70.953,226.578 M72.228,224.599c4.251-1.545,7.695-0.799,10.066,0.282l0.571,0.537l0.415-0.034
	c1.538,0.864,2.436,1.766,2.508,1.853l0.175,0.129c0.03,0.575,0.107,1.138,0.232,1.697c-2.215-0.088-8.666-0.636-15.345-3.92
	C71.265,224.957,71.737,224.786,72.228,224.599 M65.009,204.337l-0.011-0.826l-0.126-0.658c3.288,2.398,8.753,7.642,10.329,9.18
	l-0.27,0.974c-0.544,0.038-1.983-0.046-4.32-1.382c-5.21-3.018-5.614-5.362-5.614-6.896L65.009,204.337"/>
<polyline fill="#007F40" points="163.016,254.927 161.855,260.872 162.989,261.097 164.15,255.163 163.016,254.927 "/>
<polyline fill="#007F40" points="123.287,254.832 122.138,254.969 122.857,260.469 124.014,260.328 123.287,254.832 "/>
<path fill="#007F40" d="M200.122,111.122h11.885l-34.248-19.139l-0.183-0.16l-0.042,0.042l-27.565-15.383l-3.695-2.067l12.708-7.067
	h-30.013l12.749,7.083l-65.703,36.692h11.874l-0.217,0.179c31.181,40.174,26.724,66.655,25.636,71.199h-7.075l-5.18,15.528
	l85.143,0.236l-4.354-15.764h-7.128c-1.089-4.544-5.545-31.025,25.64-71.199L200.122,111.122 M193.862,108.397l2.938-2.687
	l4.822,2.687H193.862z M190.992,104.956c-0.342-0.369-0.94-0.415-1.321-0.088l-4.103,3.528h-2.086l6.892-6.287l4.354,2.44
	l-4.213,3.848h-2.101l2.474-2.127C191.266,105.946,191.319,105.348,190.992,104.956 M180.469,104.956
	c-0.331-0.369-0.929-0.415-1.313-0.088l-4.087,3.528h-1.926l7.273-6.641l0.038-0.046h7.018l-7.334,6.687h-2.245l2.481-2.127
	C180.766,105.946,180.8,105.348,180.469,104.956 M170.117,104.956c-0.339-0.369-0.925-0.415-1.309-0.088l-4.106,3.528h-1.914
	l7.273-6.641l0.042-0.046h7.01l-7.322,6.687h-2.238l2.451-2.127C170.399,105.946,170.448,105.348,170.117,104.956 M159.549,104.956
	c-0.335-0.369-0.932-0.415-1.313-0.088l-4.099,3.528h-1.705l7.288-6.641l0.019-0.046h7.025l-7.334,6.687h-2.451l2.474-2.127
	C159.849,105.946,159.876,105.348,159.549,104.956 M149.029,104.956c-0.335-0.369-0.925-0.415-1.302-0.088l-4.099,3.528h-1.541
	l7.277-6.641l0.038-0.046h7.014l-7.341,6.687h-2.611l2.459-2.127C149.334,105.946,149.364,105.348,149.029,104.956 M139.195,104.956
	c-0.335-0.369-0.917-0.415-1.302-0.088l-4.099,3.528h-2.055l7.277-6.641l0.011-0.046h7.026l-7.338,6.687h-2.089l2.462-2.127
	C139.492,105.946,139.526,105.348,139.195,104.956 M129.041,104.956c-0.323-0.369-0.917-0.415-1.305-0.088l-4.106,3.528h-2.253
	l7.296-6.641l0.015-0.046h7.022l-7.33,6.687h-1.903l2.478-2.127C129.342,105.946,129.38,105.348,129.041,104.956 M118.579,104.956
	c-0.331-0.369-0.91-0.415-1.309-0.088l-4.084,3.528h-2.154l7.269-6.641l0.053-0.046h7.003l-7.326,6.687h-2.021l2.481-2.127
	C118.872,105.946,118.914,105.348,118.579,104.956 M108.121,104.956c-0.331-0.369-0.921-0.415-1.305-0.088l-4.103,3.528h-2.036
	l7.288-6.641l0.011-0.046h7.037l-7.338,6.687h-2.108l2.455-2.127C108.422,105.946,108.456,105.348,108.121,104.956 M152.34,80.858
	l-2.352,1.968h-1.815l3.007-2.603L152.34,80.858z M155.842,82.826h-2.965l1.18-1.005L155.842,82.826z M166.742,88.907l-2.736,2.291
	h-2.226l2.143-1.85c0.373-0.331,0.43-0.925,0.095-1.309c-0.335-0.373-0.925-0.43-1.317-0.084l-3.756,3.243h-1.914l5.271-4.761
	L166.742,88.907z M170.848,91.198h-3.22l1.294-1.073L170.848,91.198z M180.05,96.359l-3.543,3.018h-2.295l4.106-3.985L180.05,96.359
	z M183.038,98.026l-1.621,1.351h-2.07l2.409-2.074L183.038,98.026z M185.485,99.377h-0.476l0.194-0.133L185.485,99.377z
	 M170.977,99.377h-2.139l2.485-2.127c0.396-0.358,0.457-0.944,0.118-1.321c-0.35-0.4-0.929-0.445-1.313-0.11l-4.133,3.558h-1.914
	l6.47-5.861h4.438l1.283,0.708L170.977,99.377z M158.472,99.377l2.508-2.127c0.377-0.358,0.422-0.944,0.091-1.321
	c-0.327-0.4-0.925-0.445-1.313-0.11l-4.114,3.558h-1.922l6.424-5.861h7.033l-6.447,5.861H158.472z M147.907,99.377l2.512-2.127
	c0.377-0.358,0.419-0.944,0.091-1.321c-0.335-0.4-0.929-0.445-1.317-0.11l-4.118,3.558h-1.697l6.413-5.861h7.01l-6.424,5.861
	H147.907z M137.391,99.377l2.508-2.127c0.388-0.358,0.419-0.944,0.088-1.321c-0.339-0.4-0.91-0.445-1.309-0.11l-4.122,3.558h-1.534
	l6.428-5.861h7.003l-6.432,5.861H137.391z M127.569,99.377l2.481-2.127c0.403-0.358,0.441-0.944,0.114-1.321
	c-0.343-0.4-0.929-0.445-1.302-0.11l-4.133,3.558h-2.059l6.417-5.861h7.006l-6.424,5.861H127.569z M117.422,99.377l2.485-2.127
	c0.388-0.358,0.445-0.944,0.095-1.321c-0.323-0.4-0.91-0.445-1.309-0.11l-4.122,3.558h-2.245l6.432-5.861h6.976l-6.42,5.861H117.422
	z M139.587,85.136l-6.652,6.063h-1.747l2.143-1.85c0.392-0.331,0.43-0.925,0.103-1.309c-0.346-0.373-0.91-0.43-1.309-0.084
	l-3.395,2.915l-0.274,0.175l-0.175,0.152h-1.732l6.641-6.063H139.587z M149.912,85.136l-6.611,6.063h-2.447l2.146-1.85
	c0.377-0.331,0.426-0.925,0.095-1.309c-0.335-0.373-0.932-0.43-1.317-0.084l-3.772,3.243h-1.705l6.641-6.063H149.912z
	 M160.199,85.269l-6.557,5.929h-2.219l2.143-1.85c0.381-0.331,0.415-0.925,0.088-1.309c-0.343-0.373-0.925-0.43-1.309-0.084
	l-3.76,3.243h-1.937l6.637-6.063h6.71L160.199,85.269z M149.094,79.035l-4.369,3.791h-2.489l2.386-2.055
	c0.388-0.327,0.426-0.913,0.091-1.302c-0.327-0.384-0.917-0.434-1.305-0.084l-3.992,3.44H137.7l4.407-4.023h6.546L149.094,79.035z
	 M134.373,82.826h-2.249l5.747-3.197L134.373,82.826z M129.844,85.136l-6.637,6.063h-2.714l2.143-1.85
	c0.388-0.316,0.442-0.902,0.126-1.294l5.21-2.919H129.844z M117.67,91.198h-0.552l1.576-0.887L117.67,91.198z M115.398,93.516
	l-6.432,5.861h-2.013l2.493-2.127c0.396-0.358,0.426-0.944,0.091-1.321l-0.411-0.266l3.832-2.146H115.398z M104.125,99.377h-1.675
	l4.723-2.634L104.125,99.377z M138.145,69.73h11.665c-2.767,1.545-5.214,2.911-5.831,3.243
	C143.37,72.641,140.919,71.275,138.145,69.73 M86.279,108.397l12-6.687h6.375l-7.33,6.687h-2.953l2.462-2.127
	c0.392-0.324,0.426-0.921,0.095-1.313c-0.327-0.369-0.925-0.415-1.309-0.088l-4.087,3.528H86.279z M188.438,123.483
	c-2.105,3.3-3.962,6.504-5.629,9.579h-77.612c-1.656-3.075-3.513-6.28-5.613-9.579H188.438z M171.91,182.499h-55.808
	c0.373-1.663,0.833-4.578,0.864-8.651h54.096C171.076,177.921,171.537,180.836,171.91,182.499 M171.114,171.074h-54.202
	c-0.141-2.809-0.498-6.021-1.195-9.671h56.573C171.594,165.054,171.244,168.266,171.114,171.074 M115.12,158.633
	c-0.613-2.698-1.446-5.587-2.485-8.651h62.75c-1.054,3.064-1.865,5.952-2.478,8.651H115.12z M111.63,147.189
	c-1.332-3.555-2.987-7.341-5.005-11.356h74.769c-2.029,4.015-3.676,7.802-5.012,11.356H111.63z M179.795,185.198
	c0.392,1.454,2.192,8,2.851,10.352c-3.338-0.011-74.369-0.217-77.859-0.217c0.807-2.401,2.938-8.791,3.383-10.135H179.795
	 M190.254,120.693H97.769c-2.04-3.098-4.316-6.299-6.816-9.572h106.136C194.577,114.395,192.301,117.595,190.254,120.693"/>
</svg>
